<svg width="37" height="36" viewBox="0 0 37 36" fill="none" xmlns="http://www.w3.org/2000/svg">
<path d="M18.5 14.6253C15.8076 14.6253 13.625 16.8079 13.625 19.5003C13.625 22.1927 15.8076 24.3753 18.5 24.3753C21.1924 24.3753 23.375 22.1927 23.375 19.5003C23.375 16.8079 21.1924 14.6253 18.5 14.6253Z" fill="#57277B"/>
<path fill-rule="evenodd" clip-rule="evenodd" d="M23.9752 3.36195C20.8527 0.586383 16.1473 0.586383 13.0248 3.36195L12.7012 3.64962C11.8129 4.43916 10.6658 4.87529 9.4774 4.87529C5.55485 4.87529 2.375 8.05514 2.375 11.9777V19.5682C2.37499 22.323 2.37498 24.4824 2.56059 26.1956C2.75001 27.9439 3.14349 29.3605 4.02223 30.5699C4.55422 31.3022 5.19814 31.9461 5.93035 32.4781C7.13984 33.3568 8.55641 33.7503 10.3047 33.9397C12.0179 34.1253 14.1772 34.1253 16.932 34.1253H20.0679C22.8226 34.1253 24.9821 34.1253 26.6953 33.9397C28.4436 33.7503 29.8602 33.3568 31.0696 32.4781C31.8019 31.9461 32.4458 31.3022 32.9778 30.5699C33.8565 29.3605 34.25 27.9439 34.4394 26.1956C34.625 24.4824 34.625 22.323 34.625 19.5683V11.9777C34.625 8.05514 31.4451 4.87529 27.5226 4.87529C26.3342 4.87529 25.1871 4.43916 24.2988 3.64962L23.9752 3.36195ZM11.375 19.5003C11.375 15.5653 14.565 12.3753 18.5 12.3753C22.435 12.3753 25.625 15.5653 25.625 19.5003C25.625 23.4353 22.435 26.6253 18.5 26.6253C14.565 26.6253 11.375 23.4353 11.375 19.5003ZM27.5 13.5004C26.6716 13.5004 26 12.8288 26 12.0004C26 11.1719 26.6716 10.5004 27.5 10.5004C28.3284 10.5004 29 11.1719 29 12.0004C29 12.8288 28.3284 13.5004 27.5 13.5004Z" fill="#57277B"/>
</svg>
