<svg width="37" height="36" viewBox="0 0 37 36" fill="none" xmlns="http://www.w3.org/2000/svg">
<path fill-rule="evenodd" clip-rule="evenodd" d="M11.9993 33H24.9992C30.0847 33 33.5 29.4328 33.5 24.1249V11.8751C33.5 6.56717 30.0847 3 25.0007 3H11.9993C6.91534 3 3.5 6.56717 3.5 11.8751V24.1249C3.5 29.4328 6.91534 33 11.9993 33ZM13.2483 16.5C11.1803 16.5 9.5 14.8174 9.5 12.75C9.5 10.6826 11.1803 9 13.2483 9C15.3147 9 16.9966 10.6826 16.9966 12.75C16.9966 14.8174 15.3147 16.5 13.2483 16.5ZM30.2312 22.401C30.7335 23.6889 30.4726 25.2369 29.9356 26.5124C29.2991 28.0295 28.0803 29.1781 26.5448 29.6796C25.863 29.9025 25.148 30 24.4346 30H11.793C10.535 30 9.42182 29.6982 8.50926 29.1363C7.93759 28.7833 7.83652 27.9691 8.26038 27.4412C8.96931 26.5589 9.66919 25.6734 10.3751 24.7802C11.7206 23.0713 12.6271 22.5759 13.6347 23.0109C14.0434 23.1904 14.4537 23.4598 14.8761 23.7446C16.0013 24.5093 17.5655 25.5604 19.6259 24.4195C21.0359 23.6298 21.8537 22.2752 22.5659 21.0956L22.5778 21.0759C22.6282 20.9931 22.6783 20.9104 22.7281 20.8279L22.7282 20.8278C22.9675 20.4318 23.2036 20.0411 23.4707 19.6812C23.8056 19.2307 25.047 17.822 26.6549 18.8251C27.6791 19.4567 28.5403 20.3112 29.462 21.2261C29.8134 21.5759 30.0638 21.9737 30.2312 22.401Z" fill="#57277B"/>
</svg>
